<svg width="20" height="20" viewBox="0 0 20 20" fill="none" xmlns="http://www.w3.org/2000/svg">
<path d="M19.8574 18.2937L15.4138 13.8428C15.2698 13.6952 15.1096 13.5645 14.9361 13.4533L13.8252 12.6855C16.1102 9.8535 16.1314 5.81364 13.8763 2.95767C11.6211 0.101706 7.69143 -0.808153 4.41372 0.76676C1.13601 2.34167 -0.614957 5.98104 0.197438 9.53024C1.00983 13.0794 4.16878 15.5913 7.80409 15.5786C9.56825 15.5791 11.2802 14.9788 12.6587 13.8762L13.4919 14.9889C13.5907 15.1322 13.7023 15.2663 13.8252 15.3895L18.2688 19.8404C18.3731 19.9457 18.5151 20.0049 18.6632 20.0049C18.8113 20.0049 18.9532 19.9457 19.0575 19.8404L19.8352 19.0615C20.046 18.8525 20.0558 18.5145 19.8574 18.2937ZM7.80409 13.3532C4.73641 13.3532 2.24957 10.8623 2.24957 7.78955C2.24957 4.71685 4.73641 2.22593 7.80409 2.22593C10.8718 2.22593 13.3586 4.71685 13.3586 7.78955C13.3586 9.26512 12.7734 10.6802 11.7317 11.7236C10.69 12.767 9.27723 13.3532 7.80409 13.3532Z" fill="white"/>
</svg>
